<svg width="1920" height="1080" viewBox="0 0 1920 1080" fill="none" xmlns="http://www.w3.org/2000/svg">
<g clip-path="url(#clip0_79_8)">
<rect width="1080" height="1920" transform="matrix(0 -1 1 0 0 1080)" fill="black"/>
<rect x="552.45" y="878.788" width="189.654" height="189.654" transform="rotate(52 552.45 878.788)" fill="white"/>
<rect x="1512" y="31.8381" width="77.638" height="77.638" transform="rotate(-72 1512 31.8381)" fill="white"/>
<rect x="1247.28" y="-55" width="138.38" height="138.38" transform="rotate(37 1247.28 -55)" fill="white"/>
<rect x="520.273" y="201" width="123.524" height="123.524" transform="rotate(-112 520.273 201)" fill="white"/>
<rect x="502.076" y="285.043" width="51.0514" height="51.0514" transform="rotate(-152 502.076 285.043)" fill="white"/>
<rect x="1449.46" y="278.669" width="94.7662" height="94.7662" transform="rotate(160 1449.46 278.669)" fill="white"/>
<rect x="1449.46" y="278.669" width="94.7662" height="94.7662" transform="rotate(160 1449.46 278.669)" fill="white"/>
<rect x="812" y="163" width="106" height="106" transform="rotate(90 812 163)" fill="white"/>
<rect x="891.923" y="127.185" width="51.0513" height="51.0513" transform="rotate(140 891.923 127.185)" fill="white"/>
<rect x="924" y="363.438" width="98.3001" height="98.3001" transform="rotate(-12 924 363.438)" fill="white"/>
<rect x="999.9" y="877.109" width="91.956" height="91.956" transform="rotate(-178 999.9 877.109)" fill="white"/>
<rect x="1317.97" y="501.5" width="142.111" height="142.111" transform="rotate(-144 1317.97 501.5)" fill="white"/>
<rect x="524.923" y="855.185" width="51.0513" height="51.0513" transform="rotate(140 524.923 855.185)" fill="white"/>
<rect x="324.902" y="983.213" width="43.229" height="43.229" transform="rotate(140 324.902 983.213)" fill="white"/>
<rect x="180.535" y="101" width="58.3944" height="58.3944" transform="rotate(-130 180.535 101)" fill="white"/>
<circle cx="617.5" cy="265.5" r="70.5" transform="rotate(-90 617.5 265.5)" fill="white"/>
<circle cx="1673.5" cy="142.5" r="74.5" transform="rotate(-90 1673.5 142.5)" fill="white"/>
<circle cx="1456" cy="785.08" r="124" transform="rotate(-90 1456 785.08)" fill="white"/>
<circle cx="1803" cy="809.08" r="44" transform="rotate(-90 1803 809.08)" fill="white"/>
<circle cx="373.5" cy="888.5" r="59.5" transform="rotate(-90 373.5 888.5)" fill="white"/>
<circle cx="738.5" cy="930.5" r="72.5" transform="rotate(-90 738.5 930.5)" fill="white"/>
<circle cx="891.5" cy="948.5" r="51.5" transform="rotate(-90 891.5 948.5)" fill="white"/>
<circle cx="167.5" cy="1053.5" r="87.5" transform="rotate(-90 167.5 1053.5)" fill="white"/>
<circle cx="1695" cy="1084.08" r="64" transform="rotate(-90 1695 1084.08)" fill="white"/>
<circle cx="1619.5" cy="531.58" r="47.5" transform="rotate(-90 1619.5 531.58)" fill="white"/>
<circle cx="1441" cy="-9.91956" r="48" transform="rotate(-90 1441 -9.91956)" fill="white"/>
<circle cx="1318.5" cy="177.5" r="27.5" transform="rotate(-90 1318.5 177.5)" fill="white"/>
<circle cx="692" cy="346" r="26" transform="rotate(-90 692 346)" fill="white"/>
<circle cx="1109" cy="1014" r="31" transform="rotate(-90 1109 1014)" fill="white"/>
<circle cx="668" cy="709" r="20" transform="rotate(-90 668 709)" fill="white"/>
<circle cx="443.5" cy="421.5" r="17.5" transform="rotate(-90 443.5 421.5)" fill="white"/>
<circle cx="886.5" cy="395.5" r="28.5" transform="rotate(-90 886.5 395.5)" fill="white"/>
<circle cx="1010.5" cy="496.5" r="28.5" transform="rotate(-90 1010.5 496.5)" fill="white"/>
<circle cx="307" cy="299" r="43" transform="rotate(-90 307 299)" fill="white"/>
<circle cx="86" cy="389" r="78" transform="rotate(-90 86 389)" fill="white"/>
<circle cx="1011.5" cy="102.5" r="51.5" transform="rotate(-90 1011.5 102.5)" fill="white"/>
<circle cx="167" cy="624" r="29" transform="rotate(-90 167 624)" fill="white"/>
<circle cx="417" cy="540" r="29" transform="rotate(-90 417 540)" fill="white"/>
<circle cx="50.5" cy="774.5" r="33.5" transform="rotate(-90 50.5 774.5)" fill="white"/>
<circle cx="47.5" cy="1013.5" r="19.5" transform="rotate(-90 47.5 1013.5)" fill="white"/>
<circle cx="254.5" cy="123.5" r="19.5" transform="rotate(-90 254.5 123.5)" fill="white"/>
<circle cx="1726" cy="407" r="23" transform="rotate(-90 1726 407)" fill="white"/>
<circle cx="1443" cy="940" r="23" transform="rotate(-90 1443 940)" fill="white"/>
<circle cx="303" cy="617" r="95" transform="rotate(-90 303 617)" fill="white"/>
<circle cx="732" cy="44.0001" r="95" transform="rotate(-90 732 44.0001)" fill="white"/>
<path d="M413.288 657.83L511.591 783.651L353.475 805.873L413.288 657.83Z" fill="white"/>
<path d="M875.614 438.41L990.471 549.326L836.987 593.337L875.614 438.41Z" fill="white"/>
<path d="M72.491 492.422L83.0585 567.614L12.6567 539.17L72.491 492.422Z" fill="white"/>
<path d="M358.905 366.624L443.364 276.052L479.572 394.483L358.905 366.624Z" fill="white"/>
<path d="M1122.49 963.854L1247.85 838.492L1293.74 1009.74L1122.49 963.854Z" fill="white"/>
<path d="M1483.75 292.069L1456.53 208.29L1542.69 226.605L1483.75 292.069Z" fill="white"/>
<path d="M1183.3 176.718L1110.27 127.459L1189.45 88.8426L1183.3 176.718Z" fill="white"/>
<path d="M1207.59 211.383L1284.64 168.676L1209.13 123.307L1207.59 211.383Z" fill="white"/>
<path d="M1057.42 565.598L1071.02 454.904L1160.08 522.022L1057.42 565.598Z" fill="white"/>
<path d="M1863.77 792.692L1805.64 699.652L1915.28 695.823L1863.77 792.692Z" fill="white"/>
<path d="M1811.33 571.262L1682.5 562.253L1754.72 455.18L1811.33 571.262Z" fill="white"/>
<path d="M1297.75 948.966L1398.73 916.153L1376.66 1020.02L1297.75 948.966Z" fill="white"/>
<path d="M988.603 923.42L1103.47 1100.31L892.851 1111.34L988.603 923.42Z" fill="white"/>
<path d="M274.238 1090.21L366.007 972.748L421.846 1110.95L274.238 1090.21Z" fill="white"/>
<path d="M429.985 60.2613L437.707 -50.1666L529.479 11.7347L429.985 60.2613Z" fill="white"/>
<path d="M621.164 1101.94L699.723 1044.86L709.873 1141.44L621.164 1101.94Z" fill="white"/>
<path d="M1089.69 96.9324L1006.95 -58.6789L1183.08 -52.5282L1089.69 96.9324Z" fill="white"/>
<path d="M161.294 127.628L258.882 203.873L144.058 250.265L161.294 127.628Z" fill="white"/>
<path d="M104.234 778.949L154.605 665.814L227.397 766.004L104.234 778.949Z" fill="white"/>
<path d="M62.722 856.237L156.349 937.626L39.0509 978.015L62.722 856.237Z" fill="white"/>
<path d="M1655.95 945.989L1914.79 846.629L1871.42 1120.47L1655.95 945.989Z" fill="white"/>
<path d="M210.424 524.01L114.181 601.946L94.8083 479.629L210.424 524.01Z" fill="white"/>
<rect x="239" y="811.149" width="91.2831" height="91.2831" transform="rotate(-80 239 811.149)" fill="white"/>
<rect x="250" y="55.1436" width="109.562" height="109.562" transform="rotate(-72 250 55.1436)" fill="white"/>
<rect x="439" y="490.456" width="59.4967" height="59.4967" transform="rotate(-58 439 490.456)" fill="white"/>
<rect x="532" y="789.775" width="119.414" height="119.414" transform="rotate(-34 532 789.775)" fill="white"/>
<rect x="1173.42" y="1003" width="116.585" height="116.585" transform="rotate(17 1173.42 1003)" fill="white"/>
<rect x="1266" y="853.482" width="63.4234" height="63.4234" transform="rotate(-16 1266 853.482)" fill="white"/>
<rect x="1558.16" y="1136.08" width="155.839" height="155.839" transform="rotate(-148 1558.16 1136.08)" fill="white"/>
<rect x="349.597" y="511" width="81.6927" height="81.6927" transform="rotate(-109 349.597 511)" fill="white"/>
<rect x="21.792" y="266.619" width="102.83" height="102.83" transform="rotate(-88 21.792 266.619)" fill="white"/>
<rect x="177" y="456.19" width="106.175" height="106.175" transform="rotate(-72 177 456.19)" fill="white"/>
<rect x="165" y="313.373" width="60.2779" height="60.2779" transform="rotate(-72 165 313.373)" fill="white"/>
<rect x="8" y="652.807" width="88.9751" height="88.9751" transform="rotate(-44 8 652.807)" fill="white"/>
<rect x="72" y="827.388" width="46.7268" height="46.7268" transform="rotate(-44 72 827.388)" fill="white"/>
<rect x="25.6355" y="1116" width="53.1866" height="53.1866" transform="rotate(-95 25.6355 1116)" fill="white"/>
<rect x="1500.41" y="556.08" width="44.5605" height="44.5605" transform="rotate(-113 1500.41 556.08)" fill="white"/>
<rect x="1782.88" y="435.121" width="61.1035" height="61.1035" transform="rotate(-113 1782.88 435.121)" fill="white"/>
<rect x="1806" y="611.31" width="78.8713" height="78.8713" transform="rotate(-45 1806 611.31)" fill="white"/>
<rect x="1619" y="712.278" width="135.138" height="135.138" transform="rotate(-67 1619 712.278)" fill="white"/>
<rect x="1619" y="712.278" width="135.138" height="135.138" transform="rotate(-67 1619 712.278)" fill="white"/>
<rect x="1809" y="497.476" width="135.138" height="135.138" transform="rotate(-67 1809 497.476)" fill="white"/>
<rect x="1651.22" y="52.1967" width="100.744" height="100.744" transform="rotate(-101 1651.22 52.1967)" fill="white"/>
<rect x="1052.56" y="981.948" width="65.1148" height="65.1148" transform="rotate(-120 1052.56 981.948)" fill="white"/>
<rect x="1697.71" y="373.431" width="116.375" height="116.375" transform="rotate(-111 1697.71 373.431)" fill="white"/>
<path d="M1451.57 50.9311L1563.81 103.269L1462.36 174.301L1451.57 50.9311Z" fill="white"/>
<path d="M1774.67 -25.5247L1910.65 21.2984L1802.11 115.652L1774.67 -25.5247Z" fill="white"/>
<path d="M1572.75 137.585L1582.77 208.945L1515.96 181.95L1572.75 137.585Z" fill="white"/>
<path d="M943.745 151.585L953.774 222.945L886.961 195.95L943.745 151.585Z" fill="white"/>
<path d="M606.948 369.873L504.68 431.322L502.598 312.031L606.948 369.873Z" fill="white"/>
<path d="M1253.27 679.123L1090.11 588.678L1250.02 492.594L1253.27 679.123Z" fill="white"/>
<path d="M1508.59 601.433L1629.41 590.863L1578.16 700.782L1508.59 601.433Z" fill="white"/>
<path d="M1401.36 437.176L1474.35 340.315L1521.74 451.957L1401.36 437.176Z" fill="white"/>
<path d="M834.957 227.145L964.435 247.652L881.936 349.53L834.957 227.145Z" fill="white"/>
<circle cx="583.5" cy="-13.5" r="30.5" transform="rotate(-90 583.5 -13.5)" fill="white"/>
<path d="M1404.07 1063.42C1406.23 1067.5 1407.82 1072.19 1408.83 1077.49C1409.96 1082.68 1410.27 1088.12 1409.76 1093.84C1409.24 1099.32 1407.83 1104.88 1405.54 1110.54C1403.36 1116.08 1400.04 1121.24 1395.58 1126.02C1390.21 1131.78 1384.01 1136.21 1377 1139.31C1369.99 1142.16 1362.69 1143.72 1355.1 1143.99C1347.63 1144.13 1340.24 1142.96 1332.92 1140.49C1325.59 1137.78 1318.92 1133.62 1312.91 1128.02C1306.9 1122.41 1302.35 1116.1 1299.26 1109.09C1296.16 1101.84 1294.42 1094.49 1294.04 1087.02C1293.77 1079.44 1294.88 1072.1 1297.36 1065.01C1299.84 1057.69 1303.76 1051.14 1309.13 1045.38C1314.28 1039.86 1320.18 1035.61 1326.84 1032.65C1333.5 1029.69 1340.44 1028.14 1347.67 1028.01C1354.91 1027.87 1362.19 1029.28 1369.53 1032.23C1376.86 1034.94 1383.71 1039.27 1390.09 1045.22C1391.07 1046.13 1392 1047.11 1392.86 1048.15C1393.61 1049.07 1394.35 1049.99 1395.09 1050.92C1395.96 1051.96 1396.77 1052.94 1397.51 1053.86L1342.62 1112.74C1347.71 1115.65 1353.15 1116.82 1358.94 1116.26C1364.73 1115.7 1370.2 1112.67 1375.35 1107.15C1377.98 1104.32 1379.84 1101.71 1380.95 1099.3C1382.16 1096.76 1382.97 1094.42 1383.37 1092.27C1383.76 1089.88 1383.8 1087.63 1383.49 1085.5L1404.07 1063.42ZM1329.37 1064.25C1324.22 1069.77 1321.58 1075.8 1321.46 1082.33C1321.44 1088.74 1323.31 1094.6 1327.05 1099.93L1364.79 1059.45C1359.21 1056.09 1353.17 1054.7 1346.67 1055.28C1340.28 1055.74 1334.51 1058.73 1329.37 1064.25Z" fill="white"/>
<path d="M1192.8 782.167C1198.6 784.632 1203.62 788.196 1207.86 792.861C1212.15 797.391 1215.34 802.648 1217.42 808.63C1219.69 814.534 1220.74 820.876 1220.57 827.656C1220.54 834.493 1219.06 841.354 1216.14 848.239C1213.22 855.124 1209.31 860.954 1204.41 865.728C1199.65 870.559 1194.33 874.275 1188.45 876.876C1182.76 879.399 1176.76 880.759 1170.47 880.954C1164.23 881.014 1158.2 879.812 1152.4 877.348C1148.48 875.686 1145.24 873.752 1142.67 871.546C1140.24 869.397 1138.17 867.325 1136.47 865.328C1134.61 862.946 1133.11 860.477 1131.96 857.919L1114.77 898.421L1091.48 888.536L1144.78 762.979L1161.99 770.286L1162.18 781.118C1165 780.087 1168.08 779.403 1171.41 779.064C1174.22 778.823 1177.48 778.85 1181.18 779.146C1184.87 779.441 1188.75 780.448 1192.8 782.167ZM1146.27 818.583C1143.01 826.278 1142.63 833.366 1145.13 839.848C1147.64 846.329 1152.2 850.974 1158.82 853.782C1165.43 856.59 1171.94 856.644 1178.34 853.945C1184.75 851.246 1189.58 846.049 1192.85 838.354C1196.12 830.658 1196.5 823.57 1193.99 817.088C1191.48 810.607 1186.92 805.962 1180.31 803.154C1173.69 800.346 1167.18 800.292 1160.78 802.991C1154.37 805.69 1149.54 810.887 1146.27 818.583Z" fill="white"/>
<path d="M376 217.5C387.4 217.5 396.5 214.2 403.3 207.6C410.1 201 413.5 192.8 413.5 183C413.5 173.2 410.1 165 403.3 158.4C396.5 151.8 387.4 148.5 376 148.5C364.6 148.5 355.5 151.8 348.7 158.4C341.9 165 338.5 173.2 338.5 183C338.5 192.8 341.9 201 348.7 207.6C355.5 214.2 364.6 217.5 376 217.5ZM376 114C385.8 114 395 115.9 403.6 119.7C412 123.3 419.4 128.3 425.8 134.7C432.2 140.9 437.3 148.2 441.1 156.6C444.7 164.8 446.5 173.6 446.5 183C446.5 192.4 444.7 201.3 441.1 209.7C437.3 217.9 432.2 225.2 425.8 231.6C419.4 237.8 412 242.8 403.6 246.6C395 250.2 385.8 252 376 252C366.2 252 357.1 250.2 348.7 246.6C340.1 242.8 332.6 237.8 326.2 231.6C319.8 225.2 314.8 217.9 311.2 209.7C307.4 201.3 305.5 192.4 305.5 183C305.5 173.6 307.4 164.8 311.2 156.6C314.8 148.2 319.8 140.9 326.2 134.7C332.6 128.3 340.1 123.3 348.7 119.7C357.1 115.9 366.2 114 376 114Z" fill="white"/>
<path d="M803 807.75C819.655 807.75 832.95 802.943 842.885 793.33C852.82 783.717 857.787 771.774 857.787 757.5C857.787 743.226 852.82 731.283 842.885 721.67C832.95 712.057 819.655 707.25 803 707.25C786.345 707.25 773.05 712.057 763.115 721.67C753.18 731.283 748.213 743.226 748.213 757.5C748.213 771.774 753.18 783.717 763.115 793.33C773.05 802.943 786.345 807.75 803 807.75ZM803 657C817.318 657 830.759 659.767 843.323 665.302C855.596 670.546 866.407 677.828 875.757 687.15C885.108 696.18 892.559 706.813 898.111 719.048C903.37 730.991 906 743.809 906 757.5C906 771.191 903.37 784.154 898.111 796.389C892.559 808.333 885.108 818.965 875.757 828.287C866.407 837.317 855.596 844.6 843.323 850.135C830.759 855.378 817.318 858 803 858C788.682 858 775.387 855.378 763.115 850.135C750.55 844.6 739.593 837.317 730.243 828.287C720.892 818.965 713.587 808.333 708.328 796.389C702.776 784.154 700 771.191 700 757.5C700 743.809 702.776 730.991 708.328 719.048C713.587 706.813 720.892 696.18 730.243 687.15C739.593 677.828 750.55 670.546 763.115 665.302C775.387 659.767 788.682 657 803 657Z" fill="white"/>
<path d="M132.883 -18.1277L90.2299 141.057L53.1384 131.118L105.316 -63.6125L227.409 -30.8977L217.885 4.64833L132.883 -18.1277Z" fill="white"/>
<path d="M902.736 -74.0653L983.727 22.4563L965.342 37.8832L899.135 -41.0194L857.769 -6.30882L923.976 72.5938L905.591 88.0207L824.599 -8.50095L902.736 -74.0653Z" fill="white"/>
<path d="M769.83 1129L743 1035.31L764.959 1029L775.089 1064.37L873.429 1036.14L880 1059.08L781.66 1087.32L791.789 1122.69L769.83 1129Z" fill="white"/>
<path d="M246.66 936.63L225.137 964.177L200.037 889.557L125.486 882.772L147.009 855.225L194.459 860.357L178 815.557L199.522 788.01L224.141 858.704L302.617 865.008L281.095 892.555L229.719 887.905L246.66 936.63Z" fill="white"/>
<path d="M827.033 401.967L814.593 423.454L789.542 373.507L736.358 376.12L748.798 354.634L782.73 353.542L766.712 323.693L779.152 302.206L803.475 349.442L859.377 346.102L846.937 367.589L810.288 369.408L827.033 401.967Z" fill="white"/>
<path d="M1618.86 262.62L1682 427.104L1650.67 439.13L1624.11 369.943L1554.93 396.501L1581.48 465.689L1550.15 477.716L1487.01 313.232L1518.34 301.205L1543.4 366.476L1612.59 339.918L1587.53 274.646L1618.86 262.62Z" fill="white"/>
<path d="M1743.67 848.337L1764.57 873.233L1599.81 931.716L1581.43 909.808L1667.63 757.714L1688.52 782.61L1670.15 813.299L1710.26 861.1L1743.67 848.337ZM1654.93 839.65L1622.49 894.022L1681.67 871.517L1654.93 839.65Z" fill="white"/>
<path d="M969.212 583.516L1000.12 573.473L992.629 748.137L965.429 756.975L856.702 620.072L887.611 610.029L909.183 638.56L968.529 619.277L969.212 583.516ZM927.912 662.546L966.173 712.992L967.476 649.691L927.912 662.546Z" fill="white"/>
<path d="M1406.92 74.9596L1430.73 163.809L1362.04 182.215L1357.44 165.042L1409.7 151.038L1404.7 132.372L1352.43 146.376L1347.83 129.204L1400.1 115.199L1395.1 96.5335L1342.83 110.538L1338.23 93.3651L1406.92 74.9596Z" fill="white"/>
<path d="M1406.92 74.9596L1430.73 163.809L1362.04 182.215L1357.44 165.042L1409.7 151.038L1404.7 132.372L1352.43 146.376L1347.83 129.204L1400.1 115.199L1395.1 96.5335L1342.83 110.538L1338.23 93.3651L1406.92 74.9596Z" fill="white"/>
<path d="M1298.6 593.492L1362.1 566.476L1280.77 551.389L1267.27 519.527L1357.82 537.409L1408.23 454.189L1421.72 486.051L1376.84 560.205L1441.48 532.707L1453.05 560.017L1388.41 587.515L1472.81 606.672L1486.3 638.534L1391.56 617.065L1341.49 694.768L1328 662.906L1373.67 593.787L1310.17 620.802L1298.6 593.492Z" fill="white"/>
<path d="M588.483 742.356L428.454 657.3L494.267 533.572L525.197 550.012L475.122 644.153L508.741 662.022L558.817 567.881L589.747 584.32L539.671 678.461L573.291 696.33L623.366 602.189L654.296 618.628L588.483 742.356Z" fill="white"/>
<path d="M2049.11 289.635L1862.19 365.156L1847.8 329.552L1951.65 287.596L1828.62 282.08L1819.03 258.344L1903.7 168.916L1799.85 210.872L1785.47 175.268L1972.39 99.7476L1984.97 130.901L1872.78 250.433L2036.52 258.481L2049.11 289.635Z" fill="white"/>
</g>
<defs>
<clipPath id="clip0_79_8">
<rect width="1080" height="1920" fill="white" transform="matrix(0 -1 1 0 0 1080)"/>
</clipPath>
</defs>
</svg>
