<svg width="200" height="39" viewBox="0 0 200 39" fill="none" xmlns="http://www.w3.org/2000/svg">
<path d="M7.76917 28.5512L2.78245 18.2465L2.78245 28.5512H0L0 11.9701H2.40302L8.69062 24.8645L14.9963 11.9701H17.3993V28.5512H14.6169V18.2465L9.63015 28.5512H7.76917Z" fill="black"/>
<path d="M26.6392 20.2607C26.6392 21.1479 26.7777 21.9511 27.0548 22.6705C27.3318 23.3899 27.6992 24.0133 28.1569 24.5408C28.6267 25.0564 29.1627 25.452 29.7649 25.7278C30.3672 26.0155 30.9936 26.1594 31.644 26.1594C32.2824 26.1594 32.9027 26.0155 33.505 25.7278C34.1072 25.44 34.6372 25.0444 35.0949 24.5408C35.5527 24.0253 35.9261 23.4018 36.2152 22.6705C36.5042 21.9511 36.6428 21.1479 36.6307 20.2607C36.6307 19.3735 36.4922 18.5702 36.2152 17.8508C35.9261 17.1315 35.5527 16.514 35.0949 15.9985C34.6372 15.4829 34.1072 15.0813 33.505 14.7936C32.9027 14.5058 32.2824 14.3679 31.644 14.3799C31.0056 14.3799 30.3792 14.5178 29.7649 14.7936C29.1627 15.0813 28.6267 15.4829 28.1569 15.9985C27.6871 16.514 27.3198 17.1315 27.0548 17.8508C26.7777 18.5702 26.6392 19.3735 26.6392 20.2607ZM39.4132 20.2607C39.4132 21.5075 39.2084 22.6525 38.7989 23.6956C38.3893 24.7267 37.8352 25.6139 37.1366 26.3572C36.438 27.1005 35.6129 27.682 34.6613 28.1016C33.7097 28.5213 32.704 28.7311 31.644 28.7311C30.584 28.7311 29.5782 28.5213 28.6267 28.1016C27.6751 27.682 26.85 27.1005 26.1514 26.3572C25.4527 25.6139 24.8926 24.7267 24.4711 23.6956C24.0615 22.6645 23.8628 21.5195 23.8748 20.2607C23.8748 19.0138 24.0736 17.8748 24.4711 16.8437C24.8806 15.8126 25.4407 14.9194 26.1514 14.1641C26.85 13.4208 27.6751 12.8393 28.6267 12.4197C29.5782 12.0001 30.584 11.7902 31.644 11.7902C32.704 11.7902 33.7097 12.0001 34.6613 12.4197C35.6129 12.8393 36.438 13.4208 37.1366 14.1641C37.8352 14.9075 38.3893 15.8007 38.7989 16.8437C39.2084 17.8748 39.4132 19.0138 39.4132 20.2607Z" fill="black"/>
<path d="M82.1436 20.2607C82.1436 21.1479 82.2821 21.9511 82.5591 22.6705C82.8362 23.3899 83.2035 24.0133 83.6613 24.5408C84.131 25.0564 84.667 25.452 85.2693 25.7278C85.8716 26.0155 86.4979 26.1594 87.1484 26.1594C87.7868 26.1594 88.4071 26.0155 89.0093 25.7278C89.6116 25.44 90.1416 25.0444 90.5993 24.5408C91.057 24.0253 91.4304 23.4018 91.7195 22.6705C92.0086 21.9511 92.1471 21.1479 92.1351 20.2607C92.1351 19.3735 91.9966 18.5702 91.7195 17.8508C91.4304 17.1315 91.057 16.514 90.5993 15.9985C90.1416 15.4829 89.6116 15.0813 89.0093 14.7936C88.4071 14.5058 87.7868 14.3679 87.1484 14.3799C86.51 14.3799 85.8836 14.5178 85.2693 14.7936C84.667 15.0813 84.131 15.4829 83.6613 15.9985C83.1915 16.514 82.8241 17.1315 82.5591 17.8508C82.2821 18.5702 82.1436 19.3735 82.1436 20.2607ZM94.9175 20.2607C94.9175 21.5075 94.7128 22.6525 94.3032 23.6956C93.8937 24.7267 93.3396 25.6139 92.641 26.3572C91.9424 27.1005 91.1173 27.682 90.1657 28.1016C89.2141 28.5213 88.2083 28.7311 87.1484 28.7311C86.0884 28.7311 85.0826 28.5213 84.131 28.1016C83.1795 27.682 82.3544 27.1005 81.6557 26.3572C80.9571 25.6139 80.397 24.7267 79.9754 23.6956C79.5659 22.6645 79.3671 21.5195 79.3792 20.2607C79.3792 19.0138 79.5779 17.8748 79.9754 16.8437C80.385 15.8126 80.9451 14.9194 81.6557 14.1641C82.3544 13.4208 83.1795 12.8393 84.131 12.4197C85.0826 12.0001 86.0884 11.7902 87.1484 11.7902C88.2083 11.7902 89.2141 12.0001 90.1657 12.4197C91.1173 12.8393 91.9424 13.4208 92.641 14.1641C93.3396 14.9075 93.8937 15.8007 94.3032 16.8437C94.7128 17.8748 94.9175 19.0138 94.9175 20.2607Z" fill="black"/>
<path d="M137.839 11.9701V28.5512H135.057V14.3799H128.95L128.408 23.21C128.288 24.9724 127.776 26.3332 126.872 27.2924C125.969 28.2515 124.813 28.7311 123.403 28.7311C123.259 28.7311 123.12 28.7251 122.988 28.7131C122.867 28.7011 122.747 28.6831 122.626 28.6591C122.506 28.6352 122.397 28.5992 122.301 28.5512V26.1594H122.662C124.469 26.1594 125.457 25.1763 125.626 23.21L126.547 11.9701H137.839Z" fill="black"/>
<path d="M115.815 0V16.5812H113.05V2.58968H104.54V16.5812H101.758V0L115.815 0Z" fill="black"/>
<path d="M161.526 33.7953C161.249 34.3828 160.9 34.9583 160.478 35.5218C160.057 36.0853 159.563 36.5768 158.997 36.9965C158.431 37.4161 157.792 37.7578 157.082 38.0216C156.371 38.2853 155.57 38.4112 154.679 38.3992C153.619 38.3992 152.613 38.1894 151.661 37.7698C150.71 37.3502 149.885 36.7687 149.186 36.0253C148.487 35.282 147.927 34.3948 147.506 33.3637C147.096 32.3326 146.897 31.1877 146.91 29.9288C146.91 28.6819 147.108 27.5429 147.506 26.5119C147.915 25.4808 148.469 24.5876 149.168 23.8323C149.855 23.0889 150.662 22.5074 151.589 22.0878C152.517 21.6682 153.486 21.4584 154.498 21.4584C155.51 21.4584 156.461 21.6562 157.353 22.0519C158.256 22.4475 159.039 23.005 159.702 23.7244C160.364 24.4437 160.894 25.3189 161.291 26.35C161.689 27.3691 161.888 28.5021 161.888 29.749C161.888 29.9887 161.876 30.1986 161.852 30.3784C161.828 30.5462 161.803 30.6901 161.779 30.81C161.755 30.9539 161.731 31.0918 161.707 31.2236H149.873C149.921 31.8111 150.083 32.3866 150.36 32.9501C150.65 33.5136 151.011 34.0051 151.445 34.4248C151.878 34.8444 152.378 35.1801 152.944 35.4319C153.51 35.6956 154.088 35.8275 154.679 35.8275C155.197 35.8275 155.66 35.7556 156.07 35.6117C156.479 35.4678 156.847 35.294 157.172 35.0902C157.509 34.8983 157.786 34.6825 158.003 34.4428C158.22 34.215 158.407 33.9992 158.563 33.7953H161.526ZM154.498 24.0481C153.932 24.0481 153.39 24.168 152.872 24.4077C152.366 24.6475 151.908 24.9772 151.499 25.3969C151.077 25.8165 150.722 26.32 150.433 26.9075C150.144 27.495 149.957 28.1364 149.873 28.8318H158.925C158.732 27.3571 158.22 26.1881 157.389 25.3249C156.57 24.4737 155.606 24.0481 154.498 24.0481Z" fill="black"/>
<path d="M173.18 7.47411C172.542 7.47411 171.915 7.61198 171.301 7.88774C170.699 8.17548 170.163 8.57712 169.693 9.09266C169.223 9.6082 168.856 10.2256 168.591 10.945C168.314 11.6644 168.175 12.4676 168.175 13.3548C168.175 14.242 168.314 15.0453 168.591 15.7647C168.868 16.484 169.235 17.1075 169.693 17.635C170.163 18.1505 170.699 18.5462 171.301 18.8219C171.903 19.1097 172.53 19.2536 173.18 19.2536C173.722 19.2536 174.234 19.1517 174.716 18.9478C175.198 18.756 175.625 18.4982 175.999 18.1745C176.384 17.8508 176.715 17.4851 176.992 17.0775C177.269 16.6579 177.48 16.2143 177.625 15.7467H180.389C180.196 16.5859 179.889 17.3712 179.468 18.1026C179.046 18.8339 178.522 19.4814 177.896 20.0449C177.269 20.5964 176.553 21.034 175.746 21.3577C174.939 21.6814 174.084 21.8372 173.18 21.8253C172.12 21.8253 171.114 21.6154 170.163 21.1958C169.211 20.7762 168.386 20.1947 167.688 19.4514C166.989 18.708 166.429 17.8208 166.007 16.7898C165.598 15.7587 165.399 14.6137 165.411 13.3548C165.411 12.108 165.61 10.969 166.007 9.9379C166.417 8.90682 166.977 8.01362 167.688 7.2583C168.386 6.51497 169.211 5.93349 170.163 5.51386C171.114 5.09424 172.12 4.88443 173.18 4.88443C174.096 4.88443 174.951 5.04628 175.746 5.36999C176.553 5.6937 177.269 6.12531 177.896 6.66483C178.522 7.21634 179.046 7.86376 179.468 8.60709C179.889 9.33844 180.196 10.1237 180.389 10.963H177.625C177.48 10.4954 177.269 10.0518 176.992 9.63217C176.715 9.21255 176.384 8.84688 175.999 8.53516C175.613 8.21145 175.186 7.95368 174.716 7.76185C174.234 7.57002 173.722 7.47411 173.18 7.47411Z" fill="black"/>
<path d="M189.647 38.2194H186.865V21.6382H189.647V38.2194ZM196.676 38.2194L189.647 29.5691L195.935 21.6382H199.079L192.791 29.3713L200 38.2194H196.676Z" fill="black"/>
<path d="M55.1286 20.0808C55.5742 20.3206 55.9717 20.6143 56.321 20.962C56.6222 21.2618 56.8992 21.6454 57.1521 22.113C57.4171 22.5806 57.5496 23.1321 57.5496 23.7675C57.5496 24.4509 57.4111 25.0923 57.1341 25.6918C56.8691 26.2913 56.4897 26.8188 55.9958 27.2744C55.502 27.73 54.8997 28.0896 54.189 28.3534C53.4904 28.6052 52.6954 28.7311 51.8041 28.7311C49.9491 28.7311 48.4916 28.2395 47.4317 27.2564C46.3717 26.2733 45.7935 25.0504 45.6971 23.5877H48.4796C48.576 24.319 48.8952 24.9305 49.4372 25.422C49.9792 25.9136 50.7682 26.1594 51.8041 26.1594C52.7436 26.1594 53.4723 25.9196 53.9903 25.44C54.5082 24.9604 54.7672 24.4029 54.7672 23.7675C54.7672 23.1321 54.5022 22.5746 53.9722 22.095C53.4422 21.6154 52.7195 21.3757 51.8041 21.3757H50.3225V18.786H51.8041C52.5388 18.786 53.1531 18.5822 53.647 18.1745C54.1408 17.7549 54.3878 17.2214 54.3878 16.574C54.3878 15.9385 54.1408 15.417 53.647 15.0094C53.1652 14.5897 52.5509 14.3799 51.8041 14.3799C50.7682 14.3799 50.0093 14.6197 49.5275 15.0993C49.0457 15.5669 48.7566 16.1244 48.6603 16.7718H45.8778C45.9742 15.2971 46.5222 14.0982 47.522 13.175C48.5338 12.2518 49.9612 11.7902 51.8041 11.7902C52.5991 11.7902 53.3218 11.9221 53.9722 12.1859C54.6227 12.4377 55.1888 12.7854 55.6706 13.229C56.1524 13.6726 56.5198 14.1821 56.7727 14.7576C57.0377 15.3331 57.1702 15.9385 57.1702 16.574C57.1702 17.1854 57.0618 17.7069 56.845 18.1386C56.6402 18.5702 56.4053 18.9358 56.1404 19.2356C55.8392 19.5833 55.502 19.865 55.1286 20.0808Z" fill="black"/>
<path d="M75.0248 14.5598H67.075V28.5512H64.2926V11.9701H75.0248V14.5598Z" fill="black"/>
</svg>