<svg width="650" height="650" viewBox="0 0 1055 1264" fill="none" xmlns="http://www.w3.org/2000/svg">
<path d="M335.881 92.007C393.71 92.007 684.631 92.007 473.455 92.007C361.756 92.007 250.098 111.638 139.881 111.638C23.0518 111.638 369.635 66.4716 486.076 56.9513C622.793 45.7731 782.989 25.9282 918.897 55.5491C1012.57 75.9642 734.483 115.357 638.763 120.675C626.232 121.371 493.135 122.856 536.244 122.856C634.793 122.856 761.906 169.869 839.437 231.607C883.029 266.319 774.255 227.106 759.822 215.559C735.35 195.982 766.467 215.921 776.493 230.049C822.133 294.36 856.827 366.268 895.059 435.086C902.15 447.849 927.615 493.977 927.154 493.2C883.014 418.713 863.356 323.988 848.162 240.02C840.148 195.733 827.989 35.1684 875.739 168.039C898.257 230.696 905.186 432.178 905.186 365.597C905.186 348.127 887.315 229.008 908.614 221.635C938.722 211.213 947.253 461.798 947.253 483.385C947.253 582.453 936.035 466.259 936.035 429.788C936.035 414.119 945.576 269.935 947.409 308.418C955.067 469.239 961.275 627.967 961.275 789.226C961.275 929.738 946.931 806.914 938.84 728.307C930.629 648.545 936.035 443.27 936.035 647.757C936.035 791.214 909.575 938.689 868.105 1076.37C851.253 1132.32 790.361 1030.81 778.051 1013.12C705.02 908.133 799.363 997.163 848.162 1032.12C863.657 1043.22 899.055 1062.83 863.431 1065.78C775.952 1073.01 689.962 1079.18 601.993 1079.18C524.536 1079.18 446.706 1072.36 578.934 1055.34C658.063 1045.15 736.454 1045.52 816.067 1045.52C837.177 1045.52 862.483 1045.52 824.636 1045.52C719.044 1045.52 605.511 1035.44 505.863 996.444C492.874 991.362 597.923 974.713 612.744 972.451C685.18 961.392 758.917 945.103 832.27 941.913C899.406 938.994 816.719 950.033 792.385 955.156C709.433 972.62 622.472 980.065 537.802 983.201C506.981 984.343 476.093 983.824 445.255 983.824C434.451 983.824 409.743 993.55 412.848 983.201C422.358 951.501 641.69 927.044 664.314 923.373C724.296 913.64 784.269 903.298 844.423 894.705C873.976 890.483 776.975 905.894 768.702 908.104C654.694 938.564 540.944 961.324 424.066 976.969C383.783 982.361 330.387 991.268 405.058 976.969C552.675 948.702 999.084 896.886 848.785 896.886C668.835 896.886 493.99 978.215 312.355 978.215C244.155 978.215 435.93 919.738 500.565 897.977C604.156 863.099 708.357 826.413 809.99 786.11C865.146 764.238 835.008 764.345 790.515 771.309C672.546 789.773 556.12 832.948 439.179 858.714C430.668 860.59 380.982 867.674 389.478 864.167C475.21 828.786 564.929 800.213 652.785 770.686C719.524 748.255 784.686 720.598 851.59 699.016C910.851 679.9 729.254 723.018 669.3 739.837C556.874 771.374 444.478 806.115 330.272 830.826C226.68 853.24 345.826 824.875 381.376 812.752C466.197 783.829 553.629 759.954 639.697 734.851C710.816 714.108 643.862 730.758 610.095 743.576C514.599 779.826 416.109 808.161 317.652 835.188C295.2 841.351 266.035 843.601 308.148 843.601C335.659 843.601 518.058 846.406 405.525 846.406C368.766 846.406 149.785 817.236 290.698 824.282C352.759 827.385 523.573 888.247 475.481 848.899C454.132 831.431 295.317 729.485 333.077 738.279C351.782 742.635 507.375 800.42 469.872 755.417C429.598 707.088 290.511 584.592 347.099 612.078C356.786 616.783 429.341 659.044 425.001 641.681C419.432 619.405 355.335 550.289 402.098 573.127C445.477 594.312 478.221 604.767 428.428 560.507C393.321 529.3 414.888 561.554 435.44 572.971C442.417 576.848 390.643 542.197 404.59 556.145C471.706 623.261 199.433 450.537 342.113 557.547C412.761 610.533 323.749 488.883 310.018 472.167C259.8 411.032 347.928 521.979 369.535 534.488C414.033 560.25 268.421 358.095 281.506 407.82C287.433 430.343 357.894 516.25 325.442 463.909C307.257 434.578 241.663 318.296 280.26 421.219C324.16 538.287 296.917 478.445 240.374 414.364C174.201 339.368 257.081 531.618 268.574 560.351C300.869 641.088 209.089 429.274 199.086 427.607C179.347 424.317 213.052 465.117 219.652 484.008C231.716 518.536 240.166 554.027 249.566 589.331C258.948 624.564 262.188 666.905 276.364 700.574C298.688 753.593 215.29 481.635 215.29 539.162C215.29 574.062 253.556 772.631 244.269 705.092C229.419 597.095 144.397 284.158 191.919 382.268C223.791 448.069 268.338 648.203 244.736 459.391C243.371 448.469 235.987 386.115 239.751 390.37C260.884 414.259 276.604 447.952 289.452 477.152C305.393 513.382 274.024 354.651 278.857 351.575C283.921 348.353 352.708 514.982 352.708 450.977C352.708 428.984 340.606 249.55 360.498 307.015C386.065 380.876 373.104 315.369 378.571 277.101C391.364 187.549 587.106 224.21 639.853 244.85C689.278 264.19 534.008 254.666 480.934 254.666C444.532 254.666 551.982 271.221 588.127 275.543C621.89 279.58 689.009 270.736 719.78 288.319C750.117 305.654 650.348 296.244 615.704 300.783C555.518 308.67 494.652 318.481 435.128 330.386C427.988 331.814 330.135 348.81 359.563 349.861C447.467 353.001 710.173 322.335 622.247 324.777C548.942 326.813 474.166 346.875 401.942 358.43C386.544 360.894 252.685 375.257 327.468 375.257C432.688 375.257 747.532 387.062 643.125 374.011C540.497 361.182 234.282 385.21 333.388 355.626C459.78 317.897 608.694 317.204 729.596 268.844C788.837 245.147 602.074 263.079 538.27 263.079C445.826 263.079 353.383 263.079 260.94 263.079C176.143 263.079 318.704 243.403 337.907 240.799C383.993 234.55 432.018 232.23 478.597 232.23C596.376 232.23 242.156 207.148 125.391 222.57C39.8198 233.872 125.486 409.635 109.343 469.362C103.081 492.534 100.501 535.57 85.6614 554.119C12.0853 646.089 129.003 739.518 209.525 763.674C306.769 792.848 399.696 849.21 504.149 849.21C514.965 849.21 539.386 935.091 554.629 957.338C568.777 977.987 589.777 990.139 607.914 1006.26C644.752 1039.01 574.26 1057.13 574.26 1088.99C574.26 1098.41 723.312 1127.51 740.969 1133.86C772.241 1145.12 802.985 1157.05 835.075 1165.49C898.174 1182.1 893.705 1077.9 902.382 1033.68C909.637 996.706 916.336 770.231 945.072 884.11C948.955 899.499 969.689 1026.37 969.689 985.694C969.689 927.112 969.689 868.53 969.689 809.948C969.689 747.73 972.223 841.848 975.609 858.403C990.291 930.18 1000.39 1003.15 1008.95 1075.9C1013.31 1112.93 1011.76 1063.33 1011.76 1052.07C1011.76 843.077 986.763 619.952 965.638 411.715C955.311 309.926 1003.8 533.137 1010.2 559.884C1038.85 679.72 1007.78 454.023 1004.59 430.411C995.426 362.607 991.773 281.696 960.652 219.454C934.447 167.043 986.219 334.39 1008.33 388.656C1032.63 448.307 991.096 260.165 970.312 199.2C952.114 145.821 920.789 109.502 958.315 184.554C997.995 263.914 933.133 179.483 913.911 151.524C882.628 106.021 964.899 125.402 969.377 135.476C972.285 142.02 881.42 157.315 873.091 159.314C834.272 168.631 793.751 182.792 754.057 187.203C730.615 189.807 826.467 203.457 789.58 220.389C701.843 260.662 661.198 289.62 661.198 389.903C661.198 454.197 680.829 515.036 680.829 578.736C680.829 735.314 637.64 -45.9486 654.031 109.769C667.551 238.201 746.792 387.263 794.098 508.157C802.235 528.951 736.919 369.597 736.919 395.512C736.919 478.582 753.007 727.394 747.825 644.485C741.403 541.729 721.857 439.936 706.225 338.332C699.834 296.786 693.9 261.549 695.008 331.321C696.626 433.306 718.819 738.601 714.483 636.695C712.266 584.596 685.079 528.748 668.988 479.957C661.592 457.528 652.785 417.136 652.785 466.246C652.785 553.184 652.785 640.123 652.785 727.061C652.785 805.865 653.062 743.273 652.785 705.56C652.29 638.201 622.422 545.738 655.589 658.507" stroke="#D9D9D9" stroke-width="65" stroke-linecap="round"/>
<path d="M63.849 72.3757C76.0017 72.3757 112.46 72.3757 100.307 72.3757C90.2483 72.3757 37.6047 82.3731 42.1924 83.7494C94.5907 99.4689 99.1983 130.871 114.018 138.28C154.513 158.528 96.6375 161.027 114.329 188.605C117.102 192.928 150.843 244.659 142.218 246.096C131.466 247.888 101.626 231.225 117.134 238.462C152.415 254.927 68.4439 176.663 52.6312 141.085C38.3854 109.032 114.728 211.314 92.5168 238.462C80.2094 253.504 118.695 305.24 122.587 322.751C126.991 342.57 67.4112 263.987 84.1034 275.543C115.452 297.246 153.214 339.497 172.6 372.453C186.793 396.581 144.733 322.716 139.725 295.174C136.374 276.746 220.693 325.99 231.493 333.19C241.782 340.049 190.035 267.806 177.585 250.615C152.356 215.774 231.321 310.996 242.088 324.777C245.324 328.92 270.163 360.577 259.382 343.162C222.272 283.214 185.628 222.971 153.28 160.249C95.0884 47.4138 153.537 153.461 181.636 198.421C189.119 210.392 249.457 317.33 214.666 259.651C205.711 244.804 146.191 123.431 156.084 127.53C236.102 160.68 311.962 302.837 350.059 377.127C407.261 488.669 305.747 186.782 373.742 290.033C386.397 309.251 416.899 354.382 416.899 379.308C416.899 379.965 358.011 332.414 354.11 328.36C320.324 293.249 288.905 256.015 266.393 212.599C251.476 183.83 322.481 265.414 333.077 278.659C361.902 314.69 323.016 263.851 316.25 251.549C284.003 192.918 251.343 133.168 231.493 68.9481C205.982 -13.589 264.679 67.7597 291.01 97.6159C330.166 142.013 370.997 186.328 412.692 228.023C455.957 271.288 338.194 130.486 307.837 77.3614C271.421 13.6334 411.638 181.9 455.227 240.955C526.849 337.992 364.087 79.4278 457.096 264.325C467.84 285.683 542.813 436.199 503.837 333.346C484.961 283.533 470.062 232.319 451.176 182.529C440.756 155.059 427.719 114.029 456.473 162.742C489.57 218.812 517.302 282.544 539.983 343.785C564.934 411.15 505.276 203.475 501.5 131.737C497.387 53.5928 699.111 372.431 639.698 321.505C631.174 314.199 582.241 255.167 585.945 242.201C598.526 198.169 674.363 384.392 683.011 339.422C698.395 259.423 677.01 171.033 683.79 89.6699C687.678 43.0106 753.78 158.757 758.108 170.22C761.734 179.824 789.429 239.695 774 245.629C747.473 255.832 740.197 241.872 759.666 271.96C841.307 398.132 854.668 574.341 716.041 662.558C641.633 709.909 1006.63 470.776 949.434 537.916C904.724 590.402 839.219 618.993 783.971 656.793C771.137 665.575 819.666 598.896 832.27 585.591C874.215 541.317 730.656 653.39 683.322 691.849C664.441 707.19 532.47 818.886 606.667 741.239C747.493 593.862 451.018 836.75 457.252 824.593C490.164 760.414 554.346 706.645 600.747 651.808C643.939 600.762 480.665 710.682 420.95 740.771C236.816 833.552 650.604 482.679 421.885 623.607C380.353 649.198 262 729.804 292.256 691.537C301.918 679.318 354.066 633.32 313.913 665.207C167.43 781.532 461.155 491.793 308.927 612.389C268.743 644.224 159.116 751.707 192.231 712.571C221.626 677.831 253.975 643.504 286.024 611.455C286.936 610.543 271.872 618.861 268.574 621.426C245.025 639.742 256.303 635.451 278.234 621.893C284.895 617.776 381.289 550.916 371.093 540.72C334.234 503.862 404.389 536.108 391.659 488.37C389.607 480.676 360.307 432.928 361.745 431.969C363.946 430.502 396.143 460.641 391.815 441.162C387.627 422.317 420.588 468.392 428.428 486.033C433.27 496.926 411.577 457.857 408.797 460.637C395.855 473.579 422.621 481.826 392.126 481.826C373.188 481.826 344.295 464.322 344.295 490.24C344.295 500.436 351.216 548.975 333.077 532.307C327.299 526.997 288.517 495.993 288.517 496.628C288.517 516.582 327.046 555.699 307.214 553.496C293.502 551.972 258.319 486.83 250.501 474.036C246.006 466.681 249.795 555.796 251.903 571.257C262.402 648.244 245.645 595.464 223.08 550.691C214.346 533.363 176.95 438.108 181.792 454.249C194.304 495.957 215.975 538.039 235.544 577.178C264.009 634.108 167.59 468.863 142.997 410.157C120.658 356.831 149.425 469.6 154.994 482.917C191.359 569.877 139.784 470.889 126.482 439.448C114.465 411.043 64.0595 298.829 64.3164 300.627C72.1053 355.149 207.081 655.986 100.619 450.666C79.5298 409.995 33 285.195 33 331.009C33 416.066 75.3885 500.465 97.5025 581.229C114.419 643.011 107.182 586.584 97.5025 557.547C84.6133 518.879 88.1419 564.628 90.3356 582.787C97.9121 645.504 110.866 706.97 115.576 770.218C116.727 785.677 133.874 924.405 124.301 884.422C119.095 862.68 86.2847 747.285 86.2847 764.298C86.2847 892.394 94.6981 1020.47 94.6981 1148.82C94.6981 1241.73 80.7365 1128.11 77.2481 1100.36C63.0324 987.316 38.6089 860.719 38.6089 747.315C38.6089 656.61 48.6197 928.449 53.2544 1019.04C54.4634 1042.67 69.4579 1233.51 69.4579 1121.55C69.4579 1000.65 69.4579 879.748 69.4579 758.844C69.4579 609.995 141.293 1048.11 164.809 1195.09C193.138 1372.15 126.303 838.55 109.188 660.065C106.054 627.385 64.64 424.194 110.278 520.777C143.7 591.508 168.889 672.218 210.927 738.278C249.301 798.581 165.52 602.697 145.178 534.176C113.147 426.28 249.962 971.733 230.403 860.896C215.411 775.944 187.457 692.069 167.614 608.027C159.661 574.344 171.288 622.079 173.846 630.774C192.626 694.625 212.206 758.231 230.403 822.256C239.22 853.279 262.814 947.002 257.045 915.271C243.434 840.411 184.852 619.793 198.463 694.654C221.57 821.745 274.71 955.972 311.888 1080.89C352.766 1218.24 274.351 989.209 261.096 956.403C234.048 889.46 209.165 802.889 221.522 932.409C222.944 947.319 247.562 1163.97 240.218 1163.15C210.977 1159.9 185.227 1127.9 184.441 1098.81C183.102 1049.29 395.083 1067.47 429.363 1068.11C466.878 1068.82 564.217 1066.64 595.138 1097.56C596.656 1099.08 518.536 1110.55 510.692 1111.27C445.296 1117.27 380.626 1118.44 315.004 1118.44C160.403 1118.44 237.782 1124.44 337.284 1116.72C384.052 1113.1 432.202 1096 478.909 1096" stroke="#D9D9D9" stroke-width="65" stroke-linecap="round"/>
</svg>
